<svg xmlns="http://www.w3.org/2000/svg" xmlns:xlink="http://www.w3.org/1999/xlink" version="1.1" width="256" height="256" viewBox="0 0 256 256" xml:space="preserve">

<defs>
</defs>
<g style="stroke: none; stroke-width: 0; stroke-dasharray: none; stroke-linecap: butt; stroke-linejoin: miter; stroke-miterlimit: 10; fill: none; fill-rule: nonzero; opacity: 1;" transform="translate(1.4065934065934016 1.4065934065934016) scale(2.81 2.81)" >
	<path d="M 44.759 30.653 c -2.993 0 -5.428 -2.435 -5.428 -5.428 s 2.435 -5.428 5.428 -5.428 s 5.428 2.435 5.428 5.428 S 47.752 30.653 44.759 30.653 z M 44.759 21.797 c -1.89 0 -3.428 1.538 -3.428 3.428 s 1.538 3.428 3.428 3.428 c 1.89 0 3.428 -1.538 3.428 -3.428 S 46.648 21.797 44.759 21.797 z" style="stroke: none; stroke-width: 1; stroke-dasharray: none; stroke-linecap: butt; stroke-linejoin: miter; stroke-miterlimit: 10; fill: rgb(0,0,0); fill-rule: nonzero; opacity: 1;" transform=" matrix(1 0 0 1 0 0) " stroke-linecap="round" />
	<path d="M 45 75.34 c -0.552 0 -1 -0.447 -1 -1 V 49.732 c 0 -0.553 0.448 -1 1 -1 s 1 0.447 1 1 V 74.34 C 46 74.893 45.552 75.34 45 75.34 z" style="stroke: none; stroke-width: 1; stroke-dasharray: none; stroke-linecap: butt; stroke-linejoin: miter; stroke-miterlimit: 10; fill: rgb(0,0,0); fill-rule: nonzero; opacity: 1;" transform=" matrix(1 0 0 1 0 0) " stroke-linecap="round" />
	<path d="M 64.563 90 H 24.954 l -0.276 -0.556 c -0.728 -1.468 -1.097 -3.033 -1.097 -4.653 c 0 -5.787 4.708 -10.495 10.495 -10.495 c 0.19 0 0.383 0.007 0.585 0.02 c 0.834 -2.97 2.948 -5.444 5.792 -6.727 c 0.503 -0.229 1.095 -0.004 1.323 0.5 c 0.227 0.504 0.003 1.096 -0.5 1.322 c -2.533 1.143 -4.35 3.452 -4.86 6.178 l -0.176 0.94 l -0.948 -0.135 c -0.47 -0.067 -0.855 -0.099 -1.215 -0.099 c -4.684 0 -8.495 3.811 -8.495 8.495 c 0 1.107 0.214 2.184 0.637 3.209 H 63.3 c 0.423 -1.025 0.637 -2.102 0.637 -3.209 c 0 -4.685 -3.811 -8.495 -8.495 -8.495 c -0.359 0 -0.745 0.031 -1.215 0.099 l -0.948 0.135 l -0.177 -0.941 c -0.484 -2.591 -2.186 -4.845 -4.549 -6.028 c -0.494 -0.248 -0.694 -0.849 -0.447 -1.342 c 0.248 -0.494 0.847 -0.693 1.342 -0.447 c 2.642 1.323 4.612 3.728 5.408 6.545 c 0.202 -0.013 0.396 -0.02 0.586 -0.02 c 5.787 0 10.495 4.708 10.495 10.495 c 0 1.62 -0.369 3.186 -1.098 4.653 L 64.563 90 z" style="stroke: none; stroke-width: 1; stroke-dasharray: none; stroke-linecap: butt; stroke-linejoin: miter; stroke-miterlimit: 10; fill: rgb(0,0,0); fill-rule: nonzero; opacity: 1;" transform=" matrix(1 0 0 1 0 0) " stroke-linecap="round" />
	<path d="M 41 65.233 c -0.552 0 -1 -0.447 -1 -1 v -4.62 c 0 -0.553 0.448 -1 1 -1 s 1 0.447 1 1 v 4.62 C 42 64.786 41.552 65.233 41 65.233 z" style="stroke: none; stroke-width: 1; stroke-dasharray: none; stroke-linecap: butt; stroke-linejoin: miter; stroke-miterlimit: 10; fill: rgb(0,0,0); fill-rule: nonzero; opacity: 1;" transform=" matrix(1 0 0 1 0 0) " stroke-linecap="round" />
	<path d="M 49 65.233 c -0.553 0 -1 -0.447 -1 -1 v -4.62 c 0 -0.553 0.447 -1 1 -1 s 1 0.447 1 1 v 4.62 C 50 64.786 49.553 65.233 49 65.233 z" style="stroke: none; stroke-width: 1; stroke-dasharray: none; stroke-linecap: butt; stroke-linejoin: miter; stroke-miterlimit: 10; fill: rgb(0,0,0); fill-rule: nonzero; opacity: 1;" transform=" matrix(1 0 0 1 0 0) " stroke-linecap="round" />
	<path d="M 66.835 45.06 l -9.03 -8.584 c -1.283 -16.49 -4.893 -28.409 -10.796 -35.532 C 46.512 0.344 45.78 0 45 0 s -1.512 0.344 -2.009 0.944 c -5.903 7.123 -9.514 19.042 -10.796 35.533 l -9.029 8.583 c -1.398 1.329 -2.2 3.196 -2.2 5.125 v 8.095 c 0 0.974 0.503 1.847 1.346 2.336 c 0.424 0.245 0.889 0.368 1.354 0.368 c 0.461 0 0.922 -0.121 1.343 -0.362 l 7.953 -4.56 h 7.826 c 0.552 0 1 -0.447 1 -1 s -0.448 -1 -1 -1 h -7.107 C 33.361 28.735 37.01 11.295 44.531 2.22 C 44.689 2.029 44.893 2 45 2 s 0.311 0.029 0.469 0.22 c 7.521 9.075 11.169 26.515 10.849 51.841 h -7.107 c -0.553 0 -1 0.447 -1 1 s 0.447 1 1 1 h 7.827 l 7.953 4.561 c 0.421 0.24 0.882 0.361 1.343 0.361 c 0.465 0 0.931 -0.123 1.354 -0.369 c 0.843 -0.488 1.346 -1.361 1.346 -2.335 v -8.095 C 69.034 48.256 68.232 46.389 66.835 45.06 z M 24.015 58.887 c -0.316 0.181 -0.595 0.059 -0.7 -0.002 c -0.105 -0.062 -0.349 -0.242 -0.349 -0.605 v -8.095 c 0 -1.383 0.575 -2.723 1.578 -3.676 l 7.458 -7.09 c -0.278 4.682 -0.386 9.697 -0.31 15.066 L 24.015 58.887 z M 67.034 58.279 c 0 0.363 -0.244 0.544 -0.349 0.605 c -0.105 0.062 -0.384 0.183 -0.7 0.002 l -7.678 -4.402 c 0.076 -5.369 -0.032 -10.384 -0.31 -15.066 l 7.458 7.09 c 1.003 0.953 1.578 2.293 1.578 3.676 V 58.279 z" style="stroke: none; stroke-width: 1; stroke-dasharray: none; stroke-linecap: butt; stroke-linejoin: miter; stroke-miterlimit: 10; fill: rgb(0,0,0); fill-rule: nonzero; opacity: 1;" transform=" matrix(1 0 0 1 0 0) " stroke-linecap="round" />
</g>
</svg>